<svg xmlns="http://www.w3.org/2000/svg" xmlns:xlink="http://www.w3.org/1999/xlink" width="500" zoomAndPan="magnify" viewBox="0 0 375 374.999991" height="500" preserveAspectRatio="xMidYMid meet" version="1.0"><defs><g/><clipPath id="c5d8550dd5"><path d="M 7.933594 7.503906 L 367.277344 7.503906 L 367.277344 366.847656 L 7.933594 366.847656 Z M 7.933594 7.503906 " clip-rule="nonzero"/></clipPath><clipPath id="18d60b3480"><path d="M 187.605469 7.503906 C 88.375 7.503906 7.933594 87.945312 7.933594 187.175781 C 7.933594 286.40625 88.375 366.847656 187.605469 366.847656 C 286.835938 366.847656 367.277344 286.40625 367.277344 187.175781 C 367.277344 87.945312 286.835938 7.503906 187.605469 7.503906 Z M 187.605469 7.503906 " clip-rule="nonzero"/></clipPath><clipPath id="23af438160"><path d="M 174.210938 234.996094 L 200.859375 234.996094 L 200.859375 261.644531 L 174.210938 261.644531 Z M 174.210938 234.996094 " clip-rule="nonzero"/></clipPath><clipPath id="76d8578a90"><path d="M 187.535156 234.996094 C 180.175781 234.996094 174.210938 240.960938 174.210938 248.320312 C 174.210938 255.679688 180.175781 261.644531 187.535156 261.644531 C 194.894531 261.644531 200.859375 255.679688 200.859375 248.320312 C 200.859375 240.960938 194.894531 234.996094 187.535156 234.996094 Z M 187.535156 234.996094 " clip-rule="nonzero"/></clipPath><clipPath id="4c397038a6"><path d="M 161.632812 94.226562 L 224.746094 94.226562 L 224.746094 157.339844 L 161.632812 157.339844 Z M 161.632812 94.226562 " clip-rule="nonzero"/></clipPath><clipPath id="8180cd5e36"><path d="M 193.1875 94.226562 C 175.761719 94.226562 161.632812 108.355469 161.632812 125.78125 C 161.632812 143.210938 175.761719 157.339844 193.1875 157.339844 C 210.617188 157.339844 224.746094 143.210938 224.746094 125.78125 C 224.746094 108.355469 210.617188 94.226562 193.1875 94.226562 Z M 193.1875 94.226562 " clip-rule="nonzero"/></clipPath></defs><g clip-path="url(#c5d8550dd5)"><g clip-path="url(#18d60b3480)"><path fill="#ffbd59" d="M 7.933594 7.503906 L 367.277344 7.503906 L 367.277344 366.847656 L 7.933594 366.847656 Z M 7.933594 7.503906 " fill-opacity="1" fill-rule="nonzero"/></g></g><g fill="#000000" fill-opacity="1"><g transform="translate(160.658395, 226.003851)"><g><path d="M 114.40625 -88.84375 L 113.875 -88.84375 C 109.207031 -95.125 103.507812 -100.238281 96.78125 -104.1875 C 90.050781 -108.132812 82.644531 -110.109375 74.5625 -110.109375 C 62 -110.109375 51.410156 -105.53125 42.796875 -96.375 C 34.179688 -87.21875 29.875 -76.179688 29.875 -63.265625 C 29.875 -50.335938 34 -39.296875 42.25 -30.140625 C 50.507812 -20.992188 60.925781 -16.421875 73.5 -16.421875 C 82.644531 -16.421875 90.492188 -18.347656 97.046875 -22.203125 C 103.597656 -26.066406 109.476562 -31.410156 114.6875 -38.234375 L 115.21875 -38.234375 L 115.21875 -9.421875 C 109.289062 -5.296875 103.007812 -2.113281 96.375 0.125 C 89.738281 2.375 82.648438 3.5 75.109375 3.5 C 63.085938 3.5 51.828125 0.628906 41.328125 -5.109375 C 30.828125 -10.859375 22.613281 -18.890625 16.6875 -29.203125 C 10.769531 -39.523438 7.8125 -50.878906 7.8125 -63.265625 C 7.8125 -74.929688 10.726562 -85.921875 16.5625 -96.234375 C 22.394531 -106.554688 30.601562 -114.769531 41.1875 -120.875 C 51.78125 -126.976562 63.175781 -130.03125 75.375 -130.03125 C 81.832031 -130.03125 88.15625 -129.128906 94.34375 -127.328125 C 100.539062 -125.535156 107.226562 -122.21875 114.40625 -117.375 Z M 114.40625 -88.84375 "/></g></g></g><g fill="#000000" fill-opacity="1"><g transform="translate(90.762678, 236.885118)"><g><path d="M 36.59375 -63.84375 L 36.59375 0 L 13.125 0 L 13.125 -119.796875 L 19.359375 -119.796875 L 78.609375 -50.875 L 78.609375 -117.171875 L 102.234375 -117.171875 L 102.234375 2.46875 L 96 2.46875 Z M 36.59375 -63.84375 "/></g></g></g><g clip-path="url(#23af438160)"><g clip-path="url(#76d8578a90)"><path fill="#ffffff" d="M 174.210938 234.996094 L 200.859375 234.996094 L 200.859375 261.644531 L 174.210938 261.644531 Z M 174.210938 234.996094 " fill-opacity="1" fill-rule="nonzero"/></g></g><g clip-path="url(#4c397038a6)"><g clip-path="url(#8180cd5e36)"><path fill="#ffbd59" d="M 161.632812 94.226562 L 224.746094 94.226562 L 224.746094 157.339844 L 161.632812 157.339844 Z M 161.632812 94.226562 " fill-opacity="1" fill-rule="nonzero"/></g></g><g fill="#000000" fill-opacity="1"><g transform="translate(267.678971, 228.808018)"><g><path d="M 52.1875 -47.59375 L 26.09375 -75.65625 C 23.800781 -78.9375 22.898438 -82.082031 23.390625 -85.09375 C 23.878906 -88.101562 25.269531 -90.457031 27.5625 -92.15625 C 29.863281 -93.851562 32.597656 -94.425781 35.765625 -93.875 C 38.941406 -93.332031 42.066406 -91.144531 45.140625 -87.3125 L 80.09375 -50.0625 C 80.75 -49.40625 81.078125 -48.609375 81.078125 -47.671875 C 81.078125 -46.742188 80.75 -45.898438 80.09375 -45.140625 C 76.59375 -41.410156 72.679688 -37.273438 68.359375 -32.734375 C 64.035156 -28.203125 59.765625 -23.664062 55.546875 -19.125 C 51.335938 -14.582031 47.429688 -10.394531 43.828125 -6.5625 C 40.867188 -3.613281 37.800781 -2 34.625 -1.71875 C 31.457031 -1.445312 28.722656 -2.128906 26.421875 -3.765625 C 24.128906 -5.410156 22.734375 -7.597656 22.234375 -10.328125 C 21.742188 -13.066406 22.757812 -15.859375 25.28125 -18.703125 Z M 52.1875 -47.59375 "/></g></g></g><g fill="#000000" fill-opacity="1"><g transform="translate(31.363419, 233.944941)"><g><path d="M 55.96875 -18.703125 C 58.476562 -15.859375 59.488281 -13.066406 59 -10.328125 C 58.507812 -7.597656 57.085938 -5.410156 54.734375 -3.765625 C 52.378906 -2.128906 49.613281 -1.445312 46.4375 -1.71875 C 43.269531 -2 40.265625 -3.613281 37.421875 -6.5625 C 33.921875 -10.394531 30.035156 -14.582031 25.765625 -19.125 C 21.492188 -23.664062 17.222656 -28.203125 12.953125 -32.734375 C 8.691406 -37.273438 4.757812 -41.410156 1.15625 -45.140625 C 0.5 -45.898438 0.171875 -46.742188 0.171875 -47.671875 C 0.171875 -48.609375 0.5 -49.40625 1.15625 -50.0625 L 35.9375 -87.3125 C 39 -91.144531 42.117188 -93.332031 45.296875 -93.875 C 48.472656 -94.425781 51.207031 -93.851562 53.5 -92.15625 C 55.800781 -90.457031 57.195312 -88.101562 57.6875 -85.09375 C 58.175781 -82.082031 57.328125 -78.9375 55.140625 -75.65625 L 28.890625 -47.59375 Z M 55.96875 -18.703125 "/></g></g></g></svg>