<svg xmlns="http://www.w3.org/2000/svg" xmlns:xlink="http://www.w3.org/1999/xlink" width="500" zoomAndPan="magnify" viewBox="0 0 375 74.999997" height="100" preserveAspectRatio="xMidYMid meet" version="1.0"><defs><g/><clipPath id="e56536ad0c"><path d="M 43.769531 19.074219 L 171.75 19.074219 L 171.75 54.390625 L 43.769531 54.390625 Z M 43.769531 19.074219 " clip-rule="nonzero"/></clipPath></defs><g clip-path="url(#e56536ad0c)"><path fill="#ffbd59" d="M 43.769531 19.074219 L 171.792969 19.074219 L 171.792969 54.390625 L 43.769531 54.390625 Z M 43.769531 19.074219 " fill-opacity="1" fill-rule="nonzero"/></g><g fill="#000000" fill-opacity="1"><g transform="translate(77.271142, 50.756945)"><g><path d="M 8.515625 -14.859375 L 8.515625 0 L 3.0625 0 L 3.0625 -27.90625 L 4.515625 -27.90625 L 18.3125 -11.84375 L 18.3125 -27.28125 L 23.8125 -27.28125 L 23.8125 0.578125 L 22.359375 0.578125 Z M 8.515625 -14.859375 "/></g></g></g><g fill="#000000" fill-opacity="1"><g transform="translate(104.175765, 50.756945)"><g><path d="M 0.609375 0 L 12.109375 -28.3125 L 12.6875 -28.3125 L 24.1875 0 L 18.046875 0 L 16.9375 -2.9375 L 7.875 -2.9375 L 6.796875 0 Z M 9.859375 -8.0625 L 14.90625 -8.0625 L 12.421875 -15.171875 Z M 9.859375 -8.0625 "/></g></g></g><g fill="#000000" fill-opacity="1"><g transform="translate(129.131336, 50.756945)"><g><path d="M 8.515625 -14.859375 L 8.515625 0 L 3.0625 0 L 3.0625 -27.90625 L 4.515625 -27.90625 L 18.3125 -11.84375 L 18.3125 -27.28125 L 23.8125 -27.28125 L 23.8125 0.578125 L 22.359375 0.578125 Z M 8.515625 -14.859375 "/></g></g></g><g fill="#000000" fill-opacity="1"><g transform="translate(156.035959, 50.756945)"><g><path d="M 8.515625 0 L 3.0625 0 L 3.0625 -27.328125 L 8.515625 -27.328125 Z M 8.515625 0 "/></g></g></g><g fill="#000000" fill-opacity="1"><g transform="translate(167.659922, 50.756945)"><g/></g></g><g fill="#000000" fill-opacity="1"><g transform="translate(173.403823, 49.53941)"><g><path d="M 20.453125 -20.984375 C 19.941406 -21.265625 19.320312 -21.53125 18.59375 -21.78125 C 17.875 -22.039062 16.914062 -22.171875 15.71875 -22.171875 C 14.15625 -22.171875 12.828125 -21.867188 11.734375 -21.265625 C 10.640625 -20.671875 9.757812 -19.875 9.09375 -18.875 C 8.4375 -17.882812 7.992188 -16.796875 7.765625 -15.609375 C 7.535156 -14.429688 7.535156 -13.25 7.765625 -12.0625 C 7.992188 -10.875 8.4375 -9.78125 9.09375 -8.78125 C 9.757812 -7.789062 10.640625 -6.992188 11.734375 -6.390625 C 12.828125 -5.796875 14.15625 -5.5 15.71875 -5.5 C 16.914062 -5.5 17.960938 -5.640625 18.859375 -5.921875 C 19.765625 -6.203125 20.472656 -6.472656 20.984375 -6.734375 L 21.71875 -1.078125 C 20.875 -0.742188 19.90625 -0.46875 18.8125 -0.25 C 17.71875 -0.03125 16.6875 0.078125 15.71875 0.078125 C 13.394531 0.078125 11.363281 -0.304688 9.625 -1.078125 C 7.894531 -1.859375 6.453125 -2.910156 5.296875 -4.234375 C 4.140625 -5.566406 3.269531 -7.054688 2.6875 -8.703125 C 2.113281 -10.347656 1.828125 -12.046875 1.828125 -13.796875 C 1.828125 -15.554688 2.113281 -17.257812 2.6875 -18.90625 C 3.269531 -20.550781 4.140625 -22.035156 5.296875 -23.359375 C 6.453125 -24.679688 7.894531 -25.734375 9.625 -26.515625 C 11.363281 -27.296875 13.394531 -27.6875 15.71875 -27.6875 C 17.707031 -27.6875 19.503906 -27.328125 21.109375 -26.609375 Z M 20.453125 -20.984375 "/></g></g></g><g fill="#000000" fill-opacity="1"><g transform="translate(196.423261, 49.53941)"><g><path d="M 16.21875 0.375 C 13.863281 0.375 11.800781 -0.015625 10.03125 -0.796875 C 8.257812 -1.585938 6.785156 -2.648438 5.609375 -3.984375 C 4.441406 -5.328125 3.566406 -6.835938 2.984375 -8.515625 C 2.398438 -10.203125 2.109375 -11.929688 2.109375 -13.703125 C 2.109375 -15.472656 2.398438 -17.195312 2.984375 -18.875 C 3.566406 -20.5625 4.441406 -22.070312 5.609375 -23.40625 C 6.785156 -24.75 8.257812 -25.816406 10.03125 -26.609375 C 11.800781 -27.398438 13.863281 -27.796875 16.21875 -27.796875 C 18.5625 -27.796875 20.617188 -27.398438 22.390625 -26.609375 C 24.160156 -25.816406 25.628906 -24.75 26.796875 -23.40625 C 27.972656 -22.070312 28.851562 -20.5625 29.4375 -18.875 C 30.019531 -17.195312 30.3125 -15.472656 30.3125 -13.703125 C 30.3125 -11.929688 30.019531 -10.203125 29.4375 -8.515625 C 28.851562 -6.835938 27.972656 -5.328125 26.796875 -3.984375 C 25.628906 -2.648438 24.160156 -1.585938 22.390625 -0.796875 C 20.617188 -0.015625 18.5625 0.375 16.21875 0.375 Z M 16.21875 -5.28125 C 17.769531 -5.28125 19.101562 -5.582031 20.21875 -6.1875 C 21.34375 -6.800781 22.234375 -7.609375 22.890625 -8.609375 C 23.554688 -9.617188 24.003906 -10.722656 24.234375 -11.921875 C 24.460938 -13.117188 24.460938 -14.316406 24.234375 -15.515625 C 24.003906 -16.710938 23.554688 -17.816406 22.890625 -18.828125 C 22.234375 -19.835938 21.34375 -20.644531 20.21875 -21.25 C 19.101562 -21.863281 17.769531 -22.171875 16.21875 -22.171875 C 14.65625 -22.171875 13.3125 -21.863281 12.1875 -21.25 C 11.070312 -20.644531 10.179688 -19.835938 9.515625 -18.828125 C 8.859375 -17.816406 8.414062 -16.710938 8.1875 -15.515625 C 7.957031 -14.316406 7.957031 -13.117188 8.1875 -11.921875 C 8.414062 -10.722656 8.859375 -9.617188 9.515625 -8.609375 C 10.179688 -7.609375 11.070312 -6.800781 12.1875 -6.1875 C 13.3125 -5.582031 14.65625 -5.28125 16.21875 -5.28125 Z M 16.21875 -5.28125 "/></g></g></g><g fill="#000000" fill-opacity="1"><g transform="translate(228.811082, 49.53941)"><g><path d="M 11.203125 -27.34375 C 13.472656 -27.34375 15.460938 -26.957031 17.171875 -26.1875 C 18.878906 -25.425781 20.296875 -24.394531 21.421875 -23.09375 C 22.554688 -21.789062 23.410156 -20.320312 23.984375 -18.6875 C 24.566406 -17.0625 24.859375 -15.390625 24.859375 -13.671875 C 24.859375 -11.953125 24.566406 -10.273438 23.984375 -8.640625 C 23.410156 -7.003906 22.554688 -5.535156 21.421875 -4.234375 C 20.296875 -2.941406 18.878906 -1.910156 17.171875 -1.140625 C 15.460938 -0.378906 13.472656 0 11.203125 0 L 3.0625 0 L 3.0625 -27.34375 Z M 11.203125 -21.875 L 8.53125 -21.875 L 8.53125 -5.46875 L 11.203125 -5.46875 C 12.734375 -5.46875 14.039062 -5.757812 15.125 -6.34375 C 16.207031 -6.925781 17.070312 -7.707031 17.71875 -8.6875 C 18.375 -9.675781 18.804688 -10.753906 19.015625 -11.921875 C 19.234375 -13.097656 19.234375 -14.265625 19.015625 -15.421875 C 18.804688 -16.585938 18.375 -17.660156 17.71875 -18.640625 C 17.070312 -19.617188 16.207031 -20.398438 15.125 -20.984375 C 14.039062 -21.578125 12.734375 -21.875 11.203125 -21.875 Z M 11.203125 -21.875 "/></g></g></g><g fill="#000000" fill-opacity="1"><g transform="translate(255.730834, 49.53941)"><g><path d="M 17.203125 0 L 3.0625 0 L 3.0625 -27.34375 L 16.75 -27.34375 L 16.75 -21.875 L 8.53125 -21.875 L 8.53125 -16.40625 L 15.71875 -16.40625 L 15.71875 -10.9375 L 8.53125 -10.9375 L 8.53125 -5.46875 L 17.203125 -5.46875 Z M 17.203125 0 "/></g></g></g><g fill="#000000" fill-opacity="1"><g transform="translate(275.002931, 49.53941)"><g><path d="M 16.671875 0 L 11.171875 -10.4375 L 8.53125 -10.4375 L 8.53125 0 L 3.0625 0 L 3.0625 -27.34375 L 13.84375 -27.34375 C 15.46875 -27.34375 16.847656 -27.003906 17.984375 -26.328125 C 19.117188 -25.648438 20.003906 -24.769531 20.640625 -23.6875 C 21.285156 -22.601562 21.679688 -21.429688 21.828125 -20.171875 C 21.984375 -18.910156 21.890625 -17.671875 21.546875 -16.453125 C 21.203125 -15.242188 20.613281 -14.175781 19.78125 -13.25 C 18.957031 -12.320312 17.867188 -11.664062 16.515625 -11.28125 L 22.859375 0 Z M 8.53125 -15.75 L 13.34375 -15.75 C 14.082031 -15.75 14.675781 -15.953125 15.125 -16.359375 C 15.570312 -16.765625 15.867188 -17.273438 16.015625 -17.890625 C 16.171875 -18.503906 16.171875 -19.113281 16.015625 -19.71875 C 15.867188 -20.332031 15.570312 -20.84375 15.125 -21.25 C 14.675781 -21.664062 14.082031 -21.875 13.34375 -21.875 L 8.53125 -21.875 Z M 8.53125 -15.75 "/></g></g></g><g fill="#000000" fill-opacity="1"><g transform="translate(298.443007, 49.53941)"><g><path d="M 1.796875 -1.765625 L 2.484375 -7.5 C 3.523438 -6.757812 4.5625 -6.226562 5.59375 -5.90625 C 6.632812 -5.582031 7.570312 -5.394531 8.40625 -5.34375 C 9.25 -5.300781 9.875 -5.289062 10.28125 -5.3125 C 11.101562 -5.363281 11.800781 -5.648438 12.375 -6.171875 C 12.945312 -6.691406 13.191406 -7.320312 13.109375 -8.0625 C 13.054688 -8.851562 12.765625 -9.453125 12.234375 -9.859375 C 11.703125 -10.265625 11.050781 -10.597656 10.28125 -10.859375 C 8.851562 -11.390625 7.519531 -12.003906 6.28125 -12.703125 C 5.050781 -13.410156 4.054688 -14.285156 3.296875 -15.328125 C 2.546875 -16.378906 2.171875 -17.664062 2.171875 -19.1875 C 2.171875 -20.71875 2.492188 -22.101562 3.140625 -23.34375 C 3.796875 -24.582031 4.707031 -25.570312 5.875 -26.3125 C 7.050781 -27.050781 8.394531 -27.457031 9.90625 -27.53125 C 10.613281 -27.582031 11.484375 -27.554688 12.515625 -27.453125 C 13.546875 -27.347656 14.941406 -26.988281 16.703125 -26.375 L 16.015625 -21.109375 C 14.515625 -21.710938 13.316406 -22.0625 12.421875 -22.15625 C 11.535156 -22.25 10.875 -22.28125 10.4375 -22.25 C 9.46875 -22.195312 8.757812 -21.863281 8.3125 -21.25 C 7.863281 -20.644531 7.664062 -19.957031 7.71875 -19.1875 C 7.800781 -18.425781 8.132812 -17.847656 8.71875 -17.453125 C 9.300781 -17.054688 9.988281 -16.71875 10.78125 -16.4375 C 12.207031 -15.925781 13.519531 -15.296875 14.71875 -14.546875 C 15.914062 -13.796875 16.878906 -12.890625 17.609375 -11.828125 C 18.335938 -10.773438 18.703125 -9.519531 18.703125 -8.0625 C 18.703125 -6.5625 18.367188 -5.195312 17.703125 -3.96875 C 17.035156 -2.75 16.082031 -1.769531 14.84375 -1.03125 C 13.613281 -0.289062 12.144531 0.128906 10.4375 0.234375 C 9.925781 0.253906 9.226562 0.234375 8.34375 0.171875 C 7.46875 0.109375 6.46875 -0.0664062 5.34375 -0.359375 C 4.226562 -0.648438 3.046875 -1.117188 1.796875 -1.765625 Z M 1.796875 -1.765625 "/></g></g></g></svg>