<svg xmlns="http://www.w3.org/2000/svg" xmlns:xlink="http://www.w3.org/1999/xlink" width="500" zoomAndPan="magnify" viewBox="0 0 375 74.999997" height="100" preserveAspectRatio="xMidYMid meet" version="1.0"><defs><g/><clipPath id="83fb6e7f99"><path d="M 70.539062 2.472656 L 139.941406 2.472656 L 139.941406 71.871094 L 70.539062 71.871094 Z M 70.539062 2.472656 " clip-rule="nonzero"/></clipPath><clipPath id="5a24da7348"><path d="M 105.242188 2.472656 C 86.078125 2.472656 70.539062 18.007812 70.539062 37.171875 C 70.539062 56.335938 86.078125 71.871094 105.242188 71.871094 C 124.40625 71.871094 139.941406 56.335938 139.941406 37.171875 C 139.941406 18.007812 124.40625 2.472656 105.242188 2.472656 Z M 105.242188 2.472656 " clip-rule="nonzero"/></clipPath><clipPath id="a39453f70b"><path d="M 102.65625 46.40625 L 107.800781 46.40625 L 107.800781 51.554688 L 102.65625 51.554688 Z M 102.65625 46.40625 " clip-rule="nonzero"/></clipPath><clipPath id="2bf0da3986"><path d="M 105.226562 46.40625 C 103.804688 46.40625 102.65625 47.558594 102.65625 48.980469 C 102.65625 50.402344 103.804688 51.554688 105.226562 51.554688 C 106.648438 51.554688 107.800781 50.402344 107.800781 48.980469 C 107.800781 47.558594 106.648438 46.40625 105.226562 46.40625 Z M 105.226562 46.40625 " clip-rule="nonzero"/></clipPath><clipPath id="1f85375a7b"><path d="M 100.226562 19.21875 L 112.414062 19.21875 L 112.414062 31.410156 L 100.226562 31.410156 Z M 100.226562 19.21875 " clip-rule="nonzero"/></clipPath><clipPath id="2ad7dedb1a"><path d="M 106.320312 19.21875 C 102.953125 19.21875 100.226562 21.949219 100.226562 25.316406 C 100.226562 28.679688 102.953125 31.410156 106.320312 31.410156 C 109.6875 31.410156 112.414062 28.679688 112.414062 25.316406 C 112.414062 21.949219 109.6875 19.21875 106.320312 19.21875 Z M 106.320312 19.21875 " clip-rule="nonzero"/></clipPath><clipPath id="ed4e2d7d6e"><path d="M 152.570312 27.449219 L 222.855469 27.449219 L 222.855469 46.847656 L 152.570312 46.847656 Z M 152.570312 27.449219 " clip-rule="nonzero"/></clipPath></defs><g clip-path="url(#83fb6e7f99)"><g clip-path="url(#5a24da7348)"><path fill="#ffbd59" d="M 70.539062 2.472656 L 139.941406 2.472656 L 139.941406 71.871094 L 70.539062 71.871094 Z M 70.539062 2.472656 " fill-opacity="1" fill-rule="nonzero"/></g></g><g fill="#000000" fill-opacity="1"><g transform="translate(100.036908, 44.671225)"><g><path d="M 22.09375 -17.15625 L 22 -17.15625 C 21.09375 -18.375 19.988281 -19.363281 18.6875 -20.125 C 17.394531 -20.882812 15.96875 -21.265625 14.40625 -21.265625 C 11.976562 -21.265625 9.929688 -20.378906 8.265625 -18.609375 C 6.597656 -16.847656 5.765625 -14.71875 5.765625 -12.21875 C 5.765625 -9.71875 6.5625 -7.582031 8.15625 -5.8125 C 9.757812 -4.050781 11.773438 -3.171875 14.203125 -3.171875 C 15.960938 -3.171875 17.472656 -3.539062 18.734375 -4.28125 C 20.003906 -5.03125 21.144531 -6.066406 22.15625 -7.390625 L 22.25 -7.390625 L 22.25 -1.8125 C 21.113281 -1.019531 19.898438 -0.410156 18.609375 0.015625 C 17.328125 0.453125 15.960938 0.671875 14.515625 0.671875 C 12.191406 0.671875 10.015625 0.117188 7.984375 -0.984375 C 5.953125 -2.097656 4.363281 -3.648438 3.21875 -5.640625 C 2.082031 -7.628906 1.515625 -9.820312 1.515625 -12.21875 C 1.515625 -14.46875 2.078125 -16.585938 3.203125 -18.578125 C 4.328125 -20.578125 5.910156 -22.164062 7.953125 -23.34375 C 10.003906 -24.519531 12.207031 -25.109375 14.5625 -25.109375 C 15.8125 -25.109375 17.03125 -24.9375 18.21875 -24.59375 C 19.414062 -24.25 20.707031 -23.609375 22.09375 -22.671875 Z M 22.09375 -17.15625 "/></g></g></g><g fill="#000000" fill-opacity="1"><g transform="translate(86.537564, 46.772782)"><g><path d="M 7.0625 -12.328125 L 7.0625 0 L 2.53125 0 L 2.53125 -23.140625 L 3.734375 -23.140625 L 15.1875 -9.828125 L 15.1875 -22.640625 L 19.75 -22.640625 L 19.75 0.46875 L 18.546875 0.46875 Z M 7.0625 -12.328125 "/></g></g></g><g clip-path="url(#a39453f70b)"><g clip-path="url(#2bf0da3986)"><path fill="#ffffff" d="M 102.65625 46.40625 L 107.800781 46.40625 L 107.800781 51.554688 L 102.65625 51.554688 Z M 102.65625 46.40625 " fill-opacity="1" fill-rule="nonzero"/></g></g><g clip-path="url(#1f85375a7b)"><g clip-path="url(#2ad7dedb1a)"><path fill="#ffbd59" d="M 100.226562 19.21875 L 112.414062 19.21875 L 112.414062 31.410156 L 100.226562 31.410156 Z M 100.226562 19.21875 " fill-opacity="1" fill-rule="nonzero"/></g></g><g clip-path="url(#ed4e2d7d6e)"><path fill="#ffbd59" d="M 152.570312 27.449219 L 222.878906 27.449219 L 222.878906 46.847656 L 152.570312 46.847656 Z M 152.570312 27.449219 " fill-opacity="1" fill-rule="nonzero"/></g><g fill="#000000" fill-opacity="1"><g transform="translate(120.706375, 45.212808)"><g><path d="M 10.078125 -9.1875 L 5.046875 -14.609375 C 4.597656 -15.242188 4.421875 -15.851562 4.515625 -16.4375 C 4.609375 -17.019531 4.875 -17.472656 5.3125 -17.796875 C 5.757812 -18.128906 6.289062 -18.238281 6.90625 -18.125 C 7.519531 -18.019531 8.125 -17.597656 8.71875 -16.859375 L 15.46875 -9.671875 C 15.59375 -9.546875 15.65625 -9.390625 15.65625 -9.203125 C 15.65625 -9.023438 15.59375 -8.863281 15.46875 -8.71875 C 14.789062 -8 14.035156 -7.203125 13.203125 -6.328125 C 12.367188 -5.453125 11.546875 -4.570312 10.734375 -3.6875 C 9.921875 -2.8125 9.164062 -2.003906 8.46875 -1.265625 C 7.894531 -0.691406 7.300781 -0.378906 6.6875 -0.328125 C 6.070312 -0.273438 5.539062 -0.40625 5.09375 -0.71875 C 4.65625 -1.039062 4.390625 -1.46875 4.296875 -2 C 4.203125 -2.53125 4.394531 -3.066406 4.875 -3.609375 Z M 10.078125 -9.1875 "/></g></g></g><g fill="#000000" fill-opacity="1"><g transform="translate(75.065464, 46.20493)"><g><path d="M 10.8125 -3.609375 C 11.300781 -3.066406 11.492188 -2.53125 11.390625 -2 C 11.296875 -1.46875 11.019531 -1.039062 10.5625 -0.71875 C 10.113281 -0.40625 9.582031 -0.273438 8.96875 -0.328125 C 8.351562 -0.378906 7.773438 -0.691406 7.234375 -1.265625 C 6.554688 -2.003906 5.800781 -2.8125 4.96875 -3.6875 C 4.144531 -4.570312 3.320312 -5.453125 2.5 -6.328125 C 1.675781 -7.203125 0.914062 -8 0.21875 -8.71875 C 0.09375 -8.863281 0.03125 -9.023438 0.03125 -9.203125 C 0.03125 -9.390625 0.09375 -9.546875 0.21875 -9.671875 L 6.9375 -16.859375 C 7.53125 -17.597656 8.132812 -18.019531 8.75 -18.125 C 9.363281 -18.238281 9.890625 -18.128906 10.328125 -17.796875 C 10.773438 -17.472656 11.046875 -17.019531 11.140625 -16.4375 C 11.234375 -15.851562 11.070312 -15.242188 10.65625 -14.609375 L 5.578125 -9.1875 Z M 10.8125 -3.609375 "/></g></g></g><g fill="#000000" fill-opacity="1"><g transform="translate(170.967781, 44.850252)"><g><path d="M 4.6875 -8.171875 L 4.6875 0 L 1.6875 0 L 1.6875 -15.328125 L 2.484375 -15.328125 L 10.0625 -6.515625 L 10.0625 -15 L 13.078125 -15 L 13.078125 0.3125 L 12.28125 0.3125 Z M 4.6875 -8.171875 "/></g></g></g><g fill="#000000" fill-opacity="1"><g transform="translate(185.743533, 44.850252)"><g><path d="M 0.34375 0 L 6.65625 -15.5625 L 6.96875 -15.5625 L 13.296875 0 L 9.90625 0 L 9.296875 -1.609375 L 4.328125 -1.609375 L 3.734375 0 Z M 5.421875 -4.4375 L 8.1875 -4.4375 L 6.828125 -8.34375 Z M 5.421875 -4.4375 "/></g></g></g><g fill="#000000" fill-opacity="1"><g transform="translate(199.448885, 44.850252)"><g><path d="M 4.6875 -8.171875 L 4.6875 0 L 1.6875 0 L 1.6875 -15.328125 L 2.484375 -15.328125 L 10.0625 -6.515625 L 10.0625 -15 L 13.078125 -15 L 13.078125 0.3125 L 12.28125 0.3125 Z M 4.6875 -8.171875 "/></g></g></g><g fill="#000000" fill-opacity="1"><g transform="translate(214.224637, 44.850252)"><g><path d="M 4.6875 0 L 1.6875 0 L 1.6875 -15.015625 L 4.6875 -15.015625 Z M 4.6875 0 "/></g></g></g><g fill="#000000" fill-opacity="1"><g transform="translate(220.608402, 44.850252)"><g/></g></g><g fill="#000000" fill-opacity="1"><g transform="translate(223.762884, 44.181594)"><g><path d="M 11.234375 -11.53125 C 10.953125 -11.6875 10.613281 -11.832031 10.21875 -11.96875 C 9.820312 -12.113281 9.289062 -12.1875 8.625 -12.1875 C 7.769531 -12.1875 7.039062 -12.019531 6.4375 -11.6875 C 5.84375 -11.351562 5.363281 -10.914062 5 -10.375 C 4.632812 -9.832031 4.390625 -9.234375 4.265625 -8.578125 C 4.140625 -7.929688 4.140625 -7.28125 4.265625 -6.625 C 4.390625 -5.976562 4.632812 -5.378906 5 -4.828125 C 5.363281 -4.285156 5.84375 -3.847656 6.4375 -3.515625 C 7.039062 -3.191406 7.769531 -3.03125 8.625 -3.03125 C 9.289062 -3.03125 9.867188 -3.101562 10.359375 -3.25 C 10.859375 -3.40625 11.25 -3.554688 11.53125 -3.703125 L 11.921875 -0.59375 C 11.460938 -0.40625 10.929688 -0.25 10.328125 -0.125 C 9.722656 -0.0078125 9.15625 0.046875 8.625 0.046875 C 7.351562 0.046875 6.238281 -0.164062 5.28125 -0.59375 C 4.332031 -1.019531 3.539062 -1.597656 2.90625 -2.328125 C 2.269531 -3.054688 1.796875 -3.867188 1.484375 -4.765625 C 1.171875 -5.671875 1.015625 -6.609375 1.015625 -7.578125 C 1.015625 -8.546875 1.171875 -9.476562 1.484375 -10.375 C 1.796875 -11.28125 2.269531 -12.097656 2.90625 -12.828125 C 3.539062 -13.554688 4.332031 -14.132812 5.28125 -14.5625 C 6.238281 -14.988281 7.351562 -15.203125 8.625 -15.203125 C 9.71875 -15.203125 10.707031 -15.003906 11.59375 -14.609375 Z M 11.234375 -11.53125 "/></g></g></g><g fill="#000000" fill-opacity="1"><g transform="translate(236.404931, 44.181594)"><g><path d="M 8.90625 0.203125 C 7.613281 0.203125 6.476562 -0.0078125 5.5 -0.4375 C 4.53125 -0.875 3.722656 -1.457031 3.078125 -2.1875 C 2.441406 -2.925781 1.960938 -3.753906 1.640625 -4.671875 C 1.316406 -5.597656 1.15625 -6.546875 1.15625 -7.515625 C 1.15625 -8.492188 1.316406 -9.445312 1.640625 -10.375 C 1.960938 -11.300781 2.441406 -12.128906 3.078125 -12.859375 C 3.722656 -13.597656 4.53125 -14.179688 5.5 -14.609375 C 6.476562 -15.046875 7.613281 -15.265625 8.90625 -15.265625 C 10.195312 -15.265625 11.328125 -15.046875 12.296875 -14.609375 C 13.265625 -14.179688 14.070312 -13.597656 14.71875 -12.859375 C 15.363281 -12.128906 15.847656 -11.300781 16.171875 -10.375 C 16.492188 -9.445312 16.65625 -8.492188 16.65625 -7.515625 C 16.65625 -6.546875 16.492188 -5.597656 16.171875 -4.671875 C 15.847656 -3.753906 15.363281 -2.925781 14.71875 -2.1875 C 14.070312 -1.457031 13.265625 -0.875 12.296875 -0.4375 C 11.328125 -0.0078125 10.195312 0.203125 8.90625 0.203125 Z M 8.90625 -2.890625 C 9.757812 -2.890625 10.492188 -3.054688 11.109375 -3.390625 C 11.722656 -3.734375 12.210938 -4.179688 12.578125 -4.734375 C 12.941406 -5.285156 13.1875 -5.890625 13.3125 -6.546875 C 13.4375 -7.203125 13.4375 -7.859375 13.3125 -8.515625 C 13.1875 -9.179688 12.941406 -9.789062 12.578125 -10.34375 C 12.210938 -10.894531 11.722656 -11.335938 11.109375 -11.671875 C 10.492188 -12.015625 9.757812 -12.1875 8.90625 -12.1875 C 8.050781 -12.1875 7.316406 -12.015625 6.703125 -11.671875 C 6.085938 -11.335938 5.597656 -10.894531 5.234375 -10.34375 C 4.867188 -9.789062 4.625 -9.179688 4.5 -8.515625 C 4.375 -7.859375 4.375 -7.203125 4.5 -6.546875 C 4.625 -5.890625 4.867188 -5.285156 5.234375 -4.734375 C 5.597656 -4.179688 6.085938 -3.734375 6.703125 -3.390625 C 7.316406 -3.054688 8.050781 -2.890625 8.90625 -2.890625 Z M 8.90625 -2.890625 "/></g></g></g><g fill="#000000" fill-opacity="1"><g transform="translate(254.192001, 44.181594)"><g><path d="M 6.15625 -15.015625 C 7.394531 -15.015625 8.484375 -14.800781 9.421875 -14.375 C 10.367188 -13.957031 11.148438 -13.390625 11.765625 -12.671875 C 12.390625 -11.960938 12.859375 -11.160156 13.171875 -10.265625 C 13.492188 -9.367188 13.65625 -8.445312 13.65625 -7.5 C 13.65625 -6.5625 13.492188 -5.644531 13.171875 -4.75 C 12.859375 -3.851562 12.390625 -3.046875 11.765625 -2.328125 C 11.148438 -1.617188 10.367188 -1.050781 9.421875 -0.625 C 8.484375 -0.207031 7.394531 0 6.15625 0 L 1.6875 0 L 1.6875 -15.015625 Z M 6.15625 -12.015625 L 4.6875 -12.015625 L 4.6875 -3 L 6.15625 -3 C 6.988281 -3 7.703125 -3.160156 8.296875 -3.484375 C 8.898438 -3.804688 9.378906 -4.238281 9.734375 -4.78125 C 10.085938 -5.320312 10.320312 -5.910156 10.4375 -6.546875 C 10.5625 -7.191406 10.5625 -7.832031 10.4375 -8.46875 C 10.320312 -9.101562 10.085938 -9.691406 9.734375 -10.234375 C 9.378906 -10.773438 8.898438 -11.207031 8.296875 -11.53125 C 7.703125 -11.851562 6.988281 -12.015625 6.15625 -12.015625 Z M 6.15625 -12.015625 "/></g></g></g><g fill="#000000" fill-opacity="1"><g transform="translate(268.976061, 44.181594)"><g><path d="M 9.453125 0 L 1.6875 0 L 1.6875 -15.015625 L 9.203125 -15.015625 L 9.203125 -12.015625 L 4.6875 -12.015625 L 4.6875 -9.015625 L 8.625 -9.015625 L 8.625 -6 L 4.6875 -6 L 4.6875 -3 L 9.453125 -3 Z M 9.453125 0 "/></g></g></g><g fill="#000000" fill-opacity="1"><g transform="translate(279.560106, 44.181594)"><g><path d="M 9.15625 0 L 6.125 -5.734375 L 4.6875 -5.734375 L 4.6875 0 L 1.6875 0 L 1.6875 -15.015625 L 7.609375 -15.015625 C 8.503906 -15.015625 9.257812 -14.828125 9.875 -14.453125 C 10.5 -14.085938 10.984375 -13.601562 11.328125 -13 C 11.679688 -12.40625 11.898438 -11.757812 11.984375 -11.0625 C 12.066406 -10.375 12.015625 -9.695312 11.828125 -9.03125 C 11.640625 -8.375 11.316406 -7.789062 10.859375 -7.28125 C 10.410156 -6.769531 9.816406 -6.40625 9.078125 -6.1875 L 12.5625 0 Z M 4.6875 -8.65625 L 7.328125 -8.65625 C 7.734375 -8.65625 8.054688 -8.765625 8.296875 -8.984375 C 8.546875 -9.210938 8.710938 -9.492188 8.796875 -9.828125 C 8.878906 -10.160156 8.878906 -10.492188 8.796875 -10.828125 C 8.710938 -11.171875 8.546875 -11.453125 8.296875 -11.671875 C 8.054688 -11.898438 7.734375 -12.015625 7.328125 -12.015625 L 4.6875 -12.015625 Z M 4.6875 -8.65625 "/></g></g></g><g fill="#000000" fill-opacity="1"><g transform="translate(292.433163, 44.181594)"><g><path d="M 0.984375 -0.96875 L 1.359375 -4.109375 C 1.929688 -3.703125 2.5 -3.410156 3.0625 -3.234375 C 3.632812 -3.066406 4.148438 -2.96875 4.609375 -2.9375 C 5.078125 -2.90625 5.425781 -2.898438 5.65625 -2.921875 C 6.101562 -2.953125 6.484375 -3.109375 6.796875 -3.390625 C 7.109375 -3.679688 7.242188 -4.03125 7.203125 -4.4375 C 7.171875 -4.863281 7.007812 -5.1875 6.71875 -5.40625 C 6.425781 -5.632812 6.070312 -5.820312 5.65625 -5.96875 C 4.863281 -6.257812 4.128906 -6.597656 3.453125 -6.984375 C 2.773438 -7.367188 2.226562 -7.847656 1.8125 -8.421875 C 1.40625 -8.992188 1.203125 -9.703125 1.203125 -10.546875 C 1.203125 -11.378906 1.378906 -12.132812 1.734375 -12.8125 C 2.085938 -13.5 2.585938 -14.046875 3.234375 -14.453125 C 3.878906 -14.859375 4.613281 -15.082031 5.4375 -15.125 C 5.832031 -15.144531 6.3125 -15.128906 6.875 -15.078125 C 7.445312 -15.023438 8.210938 -14.828125 9.171875 -14.484375 L 8.796875 -11.59375 C 7.972656 -11.925781 7.316406 -12.117188 6.828125 -12.171875 C 6.335938 -12.222656 5.972656 -12.238281 5.734375 -12.21875 C 5.203125 -12.195312 4.8125 -12.015625 4.5625 -11.671875 C 4.320312 -11.335938 4.210938 -10.960938 4.234375 -10.546875 C 4.285156 -10.117188 4.46875 -9.796875 4.78125 -9.578125 C 5.101562 -9.367188 5.484375 -9.1875 5.921875 -9.03125 C 6.703125 -8.75 7.421875 -8.398438 8.078125 -7.984375 C 8.742188 -7.578125 9.273438 -7.082031 9.671875 -6.5 C 10.066406 -5.914062 10.265625 -5.226562 10.265625 -4.4375 C 10.265625 -3.601562 10.082031 -2.847656 9.71875 -2.171875 C 9.351562 -1.503906 8.832031 -0.96875 8.15625 -0.5625 C 7.476562 -0.15625 6.671875 0.0703125 5.734375 0.125 C 5.453125 0.132812 5.066406 0.125 4.578125 0.09375 C 4.097656 0.0625 3.550781 -0.03125 2.9375 -0.1875 C 2.320312 -0.351562 1.671875 -0.613281 0.984375 -0.96875 Z M 0.984375 -0.96875 "/></g></g></g></svg>